<svg xmlns="http://www.w3.org/2000/svg" viewBox="0 0 870 467.40000000000003" role="img" aria-label="Trafik lambasi breadboard yerlesimi / Traffic light breadboard layout">
  <title>Trafik lambasi breadboard yerlesimi / Traffic light breadboard layout</title>
  <style>
  .bb         { fill: #eef1f3; stroke: #c2c8cc; stroke-width: 1.5; }
  .channel    { fill: #d9dee2; }
  .hole       { fill: #9aa4aa; }
  .rail-plus  { stroke: #d94a3d; stroke-width: 2; }
  .rail-minus { stroke: #3f7fd0; stroke-width: 2; }
  .rail-lbl   { font-family: ui-sans-serif, system-ui, sans-serif; font-size: 13px; font-weight: 700; }
  .rail-lbl.plus  { fill: #d94a3d; }
  .rail-lbl.minus { fill: #3f7fd0; }
  .rail-name  { font-family: ui-monospace, monospace; font-size: 10.5px; font-weight: 700; }
  .rail-name.plus  { fill: #d94a3d; }
  .rail-name.minus { fill: #3f7fd0; }
  .col-num    { font-family: ui-monospace, monospace; font-size: 9.5px; fill: #6f7d83; }
  .row-lbl    { font-family: ui-monospace, monospace; font-size: 10px; font-weight: 700; fill: #6f7d83; }

  .ard        { fill: #0f7a80; stroke: #0a5a5f; stroke-width: 2; }
  .ard-title  { font-family: ui-sans-serif, system-ui, sans-serif; font-size: 14px; font-weight: 700; fill: #eafafa; }
  .ard-sub    { font-family: ui-sans-serif, system-ui, sans-serif; font-size: 11px; fill: #a9dfe2; }
  .ard-chip   { fill: #0a5a5f; }
  .ard-pad    { fill: #f5c542; stroke: #a8862a; stroke-width: 1.2; }
  .pin        { font-family: ui-monospace, monospace; font-size: 11.5px; font-weight: 700; fill: #eafafa; }

  .w          { fill: none; stroke-width: 3.4; stroke-linecap: round; stroke-linejoin: round; }
  .w-end      { stroke: rgba(0,0,0,.35); stroke-width: 1; }
  .leg        { fill: none; stroke: #8d949a; stroke-width: 2; stroke-linecap: round; }
  .res-body   { fill: #e2d5b0; stroke: #a89876; stroke-width: 1; }
  .led-halo   { fill: rgba(255,255,255,.8); }
  .led-body   { stroke: rgba(0,0,0,.35); stroke-width: 1; }
  .led-shine  { fill: rgba(255,255,255,.75); }
  .plus-badge { fill: #102b2e; }
  .plus-mark  { font-family: ui-sans-serif, system-ui, sans-serif; font-size: 12px; font-weight: 700; fill: #fff; }
  .btn-body   { fill: #4a5157; stroke: #2e3438; stroke-width: 1.5; }
  .btn-cap    { fill: #bcc3c8; stroke: #7d868c; stroke-width: 1.2; }
  .btn-leg    { fill: #c9a227; stroke: #8a6d1a; stroke-width: .8; }
  .ldr-body   { fill: #e8c9a0; stroke: #a07a4a; stroke-width: 1; }
  .ldr-track  { fill: none; stroke: #8a5a2b; stroke-width: 1.4; }
  .part-mod   { fill: #202428; stroke: #000; stroke-width: 1.2; }
  .mod-buzzer { fill: #0b0d0f; stroke: #9ca3af; stroke-width: 1.2; }
  .mod-lbl    { font-family: ui-sans-serif, system-ui, sans-serif; font-size: 8.5px; font-weight: 700; fill: #fff; }
  .pot-body   { fill: #2f6fb3; stroke: #1d4f85; stroke-width: 1.2; }
  .pot-knob   { fill: #e5e7eb; stroke: #6b7280; stroke-width: 1; }
  .pot-slot   { stroke: #374151; stroke-width: 2; }
  .buzzer-body{ fill: #1f2327; stroke: #000; stroke-width: 1; }
  .buzzer-hole{ fill: #6b7280; }
  .to92       { fill: #1f1f1f; stroke: #000; stroke-width: 1; }
  .part-dht   { fill: #3b82c4; stroke: #1e4f80; stroke-width: 1.2; }
  .dht-grid   { fill: #2a63a0; }
  .part-hcsr04{ fill: #2e6fb0; stroke: #1b4a7a; stroke-width: 1.2; }
  .eye        { fill: #c9ced3; stroke: #4b5563; stroke-width: 1.2; }
  .eye-in     { fill: #6b7280; stroke: #374151; stroke-width: 1; }
  .part-oled  { fill: #1b2a3a; stroke: #0b1622; stroke-width: 1.2; }
  .oled-screen{ fill: #071522; stroke: #3aa7b8; stroke-width: 1; }
  .oled-txt   { font-family: ui-monospace, monospace; font-size: 13px; font-weight: 700; fill: #bfefff; }
  .oled-sub   { font-family: ui-monospace, monospace; font-size: 8.5px; fill: #8fd3e0; }
  .on-dark    { font-family: ui-sans-serif, system-ui, sans-serif; font-size: 9.5px; font-weight: 700; fill: #fff; }
  .pin-name   { font-family: ui-monospace, monospace; font-size: 8px; font-weight: 700; fill: #fff; }
  .mod        { stroke: rgba(0,0,0,.35); stroke-width: 1.2; }
  .mod-title  { font-family: ui-sans-serif, system-ui, sans-serif; font-size: 11px; font-weight: 700; }
  .mod-sub    { font-family: ui-sans-serif, system-ui, sans-serif; font-size: 9.5px; opacity: .85; }
  .mod-pad    { fill: #f5c542; stroke: #a8862a; stroke-width: 1.2; }
  .diode      { fill: #1a1a1a; stroke: #000; stroke-width: 1; }
  .diode-band { fill: #d1d5db; }
  .tag        { stroke: rgba(0,0,0,.25); stroke-width: 1; }
  .tag-txt    { font-family: ui-monospace, monospace; font-size: 10.5px; font-weight: 700; fill: #fff; }

  /* Tahta üzerindeki etiketler: tahta her temada açık, bu yüzden sabit koyu renk + açık kontur. */
  .comp-lbl   { font-family: ui-sans-serif, system-ui, sans-serif; font-size: 11.5px; font-weight: 700; fill: #102b2e;
                paint-order: stroke; stroke: #eef1f3; stroke-width: 5px; stroke-linejoin: round; }
  .comp-sub   { font-family: ui-monospace, monospace; font-size: 10.5px; font-weight: 700; fill: #3b4a4e;
                paint-order: stroke; stroke: #eef1f3; stroke-width: 5px; stroke-linejoin: round; }

  /* Tahta dışı: sayfa temasına uyar. */
  .legend     { font-family: ui-sans-serif, system-ui, sans-serif; font-size: 11.5px; fill: var(--text-muted, #5a6f74); }
  .legend-b   { font-family: ui-sans-serif, system-ui, sans-serif; font-size: 11.5px; font-weight: 700; fill: var(--text, #102b2e); }
  .note       { font-family: ui-sans-serif, system-ui, sans-serif; font-size: 11.5px; font-weight: 700; fill: var(--text, #102b2e); }
  .note-muted { font-family: ui-sans-serif, system-ui, sans-serif; font-size: 11px; fill: var(--text-muted, #5a6f74); }
  .badge      { fill: #00979d; }
  .badge-txt  { font-family: ui-sans-serif, system-ui, sans-serif; font-size: 11px; font-weight: 700; fill: #fff; }
</style>
  <rect class="bb" x="262" y="44" width="558" height="345.40000000000003" rx="6" />
  <line class="rail-minus" x1="268.3" y1="50" x2="813.7" y2="50" />
  <text class="rail-lbl minus" x="829" y="64">−</text>
  <line class="rail-plus" x1="268.3" y1="88" x2="813.7" y2="88" />
  <text class="rail-lbl plus" x="829" y="82">+</text>
  <line class="rail-minus" x1="268.3" y1="341.6" x2="813.7" y2="341.6" />
  <text class="rail-lbl minus" x="829" y="355.6">−</text>
  <text class="rail-name minus" x="841" y="355.6">GND</text>
  <line class="rail-plus" x1="268.3" y1="379.6" x2="813.7" y2="379.6" />
  <text class="rail-lbl plus" x="829" y="373.6">+</text>
  <text class="rail-name plus" x="841" y="373.6">3V3</text>
  <rect class="channel" x="268.3" y="195" width="545.4" height="39.6" rx="3" />
  <circle class="hole" cx="271" cy="60" r="2.6" />
  <circle class="hole" cx="271" cy="78" r="2.6" />
  <circle class="hole" cx="271" cy="351.6" r="2.6" />
  <circle class="hole" cx="271" cy="369.6" r="2.6" />
  <circle class="hole" cx="271" cy="115.80000000000001" r="2.6" />
  <circle class="hole" cx="271" cy="133.8" r="2.6" />
  <circle class="hole" cx="271" cy="151.8" r="2.6" />
  <circle class="hole" cx="271" cy="169.8" r="2.6" />
  <circle class="hole" cx="271" cy="187.8" r="2.6" />
  <circle class="hole" cx="271" cy="241.8" r="2.6" />
  <circle class="hole" cx="271" cy="259.8" r="2.6" />
  <circle class="hole" cx="271" cy="277.8" r="2.6" />
  <circle class="hole" cx="271" cy="295.8" r="2.6" />
  <circle class="hole" cx="271" cy="313.8" r="2.6" />
  <text class="col-num" x="271" y="100.50000000000001" text-anchor="middle">1</text>
  <text class="col-num" x="271" y="335.7" text-anchor="middle">1</text>
  <circle class="hole" cx="289" cy="60" r="2.6" />
  <circle class="hole" cx="289" cy="78" r="2.6" />
  <circle class="hole" cx="289" cy="351.6" r="2.6" />
  <circle class="hole" cx="289" cy="369.6" r="2.6" />
  <circle class="hole" cx="289" cy="115.80000000000001" r="2.6" />
  <circle class="hole" cx="289" cy="133.8" r="2.6" />
  <circle class="hole" cx="289" cy="151.8" r="2.6" />
  <circle class="hole" cx="289" cy="169.8" r="2.6" />
  <circle class="hole" cx="289" cy="187.8" r="2.6" />
  <circle class="hole" cx="289" cy="241.8" r="2.6" />
  <circle class="hole" cx="289" cy="259.8" r="2.6" />
  <circle class="hole" cx="289" cy="277.8" r="2.6" />
  <circle class="hole" cx="289" cy="295.8" r="2.6" />
  <circle class="hole" cx="289" cy="313.8" r="2.6" />
  <circle class="hole" cx="307" cy="60" r="2.6" />
  <circle class="hole" cx="307" cy="78" r="2.6" />
  <circle class="hole" cx="307" cy="351.6" r="2.6" />
  <circle class="hole" cx="307" cy="369.6" r="2.6" />
  <circle class="hole" cx="307" cy="115.80000000000001" r="2.6" />
  <circle class="hole" cx="307" cy="133.8" r="2.6" />
  <circle class="hole" cx="307" cy="151.8" r="2.6" />
  <circle class="hole" cx="307" cy="169.8" r="2.6" />
  <circle class="hole" cx="307" cy="187.8" r="2.6" />
  <circle class="hole" cx="307" cy="241.8" r="2.6" />
  <circle class="hole" cx="307" cy="259.8" r="2.6" />
  <circle class="hole" cx="307" cy="277.8" r="2.6" />
  <circle class="hole" cx="307" cy="295.8" r="2.6" />
  <circle class="hole" cx="307" cy="313.8" r="2.6" />
  <circle class="hole" cx="325" cy="60" r="2.6" />
  <circle class="hole" cx="325" cy="78" r="2.6" />
  <circle class="hole" cx="325" cy="351.6" r="2.6" />
  <circle class="hole" cx="325" cy="369.6" r="2.6" />
  <circle class="hole" cx="325" cy="115.80000000000001" r="2.6" />
  <circle class="hole" cx="325" cy="133.8" r="2.6" />
  <circle class="hole" cx="325" cy="151.8" r="2.6" />
  <circle class="hole" cx="325" cy="169.8" r="2.6" />
  <circle class="hole" cx="325" cy="187.8" r="2.6" />
  <circle class="hole" cx="325" cy="241.8" r="2.6" />
  <circle class="hole" cx="325" cy="259.8" r="2.6" />
  <circle class="hole" cx="325" cy="277.8" r="2.6" />
  <circle class="hole" cx="325" cy="295.8" r="2.6" />
  <circle class="hole" cx="325" cy="313.8" r="2.6" />
  <circle class="hole" cx="343" cy="60" r="2.6" />
  <circle class="hole" cx="343" cy="78" r="2.6" />
  <circle class="hole" cx="343" cy="351.6" r="2.6" />
  <circle class="hole" cx="343" cy="369.6" r="2.6" />
  <circle class="hole" cx="343" cy="115.80000000000001" r="2.6" />
  <circle class="hole" cx="343" cy="133.8" r="2.6" />
  <circle class="hole" cx="343" cy="151.8" r="2.6" />
  <circle class="hole" cx="343" cy="169.8" r="2.6" />
  <circle class="hole" cx="343" cy="187.8" r="2.6" />
  <circle class="hole" cx="343" cy="241.8" r="2.6" />
  <circle class="hole" cx="343" cy="259.8" r="2.6" />
  <circle class="hole" cx="343" cy="277.8" r="2.6" />
  <circle class="hole" cx="343" cy="295.8" r="2.6" />
  <circle class="hole" cx="343" cy="313.8" r="2.6" />
  <text class="col-num" x="343" y="100.50000000000001" text-anchor="middle">5</text>
  <text class="col-num" x="343" y="335.7" text-anchor="middle">5</text>
  <circle class="hole" cx="361" cy="115.80000000000001" r="2.6" />
  <circle class="hole" cx="361" cy="133.8" r="2.6" />
  <circle class="hole" cx="361" cy="151.8" r="2.6" />
  <circle class="hole" cx="361" cy="169.8" r="2.6" />
  <circle class="hole" cx="361" cy="187.8" r="2.6" />
  <circle class="hole" cx="361" cy="241.8" r="2.6" />
  <circle class="hole" cx="361" cy="259.8" r="2.6" />
  <circle class="hole" cx="361" cy="277.8" r="2.6" />
  <circle class="hole" cx="361" cy="295.8" r="2.6" />
  <circle class="hole" cx="361" cy="313.8" r="2.6" />
  <circle class="hole" cx="379" cy="60" r="2.6" />
  <circle class="hole" cx="379" cy="78" r="2.6" />
  <circle class="hole" cx="379" cy="351.6" r="2.6" />
  <circle class="hole" cx="379" cy="369.6" r="2.6" />
  <circle class="hole" cx="379" cy="115.80000000000001" r="2.6" />
  <circle class="hole" cx="379" cy="133.8" r="2.6" />
  <circle class="hole" cx="379" cy="151.8" r="2.6" />
  <circle class="hole" cx="379" cy="169.8" r="2.6" />
  <circle class="hole" cx="379" cy="187.8" r="2.6" />
  <circle class="hole" cx="379" cy="241.8" r="2.6" />
  <circle class="hole" cx="379" cy="259.8" r="2.6" />
  <circle class="hole" cx="379" cy="277.8" r="2.6" />
  <circle class="hole" cx="379" cy="295.8" r="2.6" />
  <circle class="hole" cx="379" cy="313.8" r="2.6" />
  <circle class="hole" cx="397" cy="60" r="2.6" />
  <circle class="hole" cx="397" cy="78" r="2.6" />
  <circle class="hole" cx="397" cy="351.6" r="2.6" />
  <circle class="hole" cx="397" cy="369.6" r="2.6" />
  <circle class="hole" cx="397" cy="115.80000000000001" r="2.6" />
  <circle class="hole" cx="397" cy="133.8" r="2.6" />
  <circle class="hole" cx="397" cy="151.8" r="2.6" />
  <circle class="hole" cx="397" cy="169.8" r="2.6" />
  <circle class="hole" cx="397" cy="187.8" r="2.6" />
  <circle class="hole" cx="397" cy="241.8" r="2.6" />
  <circle class="hole" cx="397" cy="259.8" r="2.6" />
  <circle class="hole" cx="397" cy="277.8" r="2.6" />
  <circle class="hole" cx="397" cy="295.8" r="2.6" />
  <circle class="hole" cx="397" cy="313.8" r="2.6" />
  <circle class="hole" cx="415" cy="60" r="2.6" />
  <circle class="hole" cx="415" cy="78" r="2.6" />
  <circle class="hole" cx="415" cy="351.6" r="2.6" />
  <circle class="hole" cx="415" cy="369.6" r="2.6" />
  <circle class="hole" cx="415" cy="115.80000000000001" r="2.6" />
  <circle class="hole" cx="415" cy="133.8" r="2.6" />
  <circle class="hole" cx="415" cy="151.8" r="2.6" />
  <circle class="hole" cx="415" cy="169.8" r="2.6" />
  <circle class="hole" cx="415" cy="187.8" r="2.6" />
  <circle class="hole" cx="415" cy="241.8" r="2.6" />
  <circle class="hole" cx="415" cy="259.8" r="2.6" />
  <circle class="hole" cx="415" cy="277.8" r="2.6" />
  <circle class="hole" cx="415" cy="295.8" r="2.6" />
  <circle class="hole" cx="415" cy="313.8" r="2.6" />
  <circle class="hole" cx="433" cy="60" r="2.6" />
  <circle class="hole" cx="433" cy="78" r="2.6" />
  <circle class="hole" cx="433" cy="351.6" r="2.6" />
  <circle class="hole" cx="433" cy="369.6" r="2.6" />
  <circle class="hole" cx="433" cy="115.80000000000001" r="2.6" />
  <circle class="hole" cx="433" cy="133.8" r="2.6" />
  <circle class="hole" cx="433" cy="151.8" r="2.6" />
  <circle class="hole" cx="433" cy="169.8" r="2.6" />
  <circle class="hole" cx="433" cy="187.8" r="2.6" />
  <circle class="hole" cx="433" cy="241.8" r="2.6" />
  <circle class="hole" cx="433" cy="259.8" r="2.6" />
  <circle class="hole" cx="433" cy="277.8" r="2.6" />
  <circle class="hole" cx="433" cy="295.8" r="2.6" />
  <circle class="hole" cx="433" cy="313.8" r="2.6" />
  <text class="col-num" x="433" y="100.50000000000001" text-anchor="middle">10</text>
  <text class="col-num" x="433" y="335.7" text-anchor="middle">10</text>
  <circle class="hole" cx="451" cy="60" r="2.6" />
  <circle class="hole" cx="451" cy="78" r="2.6" />
  <circle class="hole" cx="451" cy="351.6" r="2.6" />
  <circle class="hole" cx="451" cy="369.6" r="2.6" />
  <circle class="hole" cx="451" cy="115.80000000000001" r="2.6" />
  <circle class="hole" cx="451" cy="133.8" r="2.6" />
  <circle class="hole" cx="451" cy="151.8" r="2.6" />
  <circle class="hole" cx="451" cy="169.8" r="2.6" />
  <circle class="hole" cx="451" cy="187.8" r="2.6" />
  <circle class="hole" cx="451" cy="241.8" r="2.6" />
  <circle class="hole" cx="451" cy="259.8" r="2.6" />
  <circle class="hole" cx="451" cy="277.8" r="2.6" />
  <circle class="hole" cx="451" cy="295.8" r="2.6" />
  <circle class="hole" cx="451" cy="313.8" r="2.6" />
  <circle class="hole" cx="469" cy="115.80000000000001" r="2.6" />
  <circle class="hole" cx="469" cy="133.8" r="2.6" />
  <circle class="hole" cx="469" cy="151.8" r="2.6" />
  <circle class="hole" cx="469" cy="169.8" r="2.6" />
  <circle class="hole" cx="469" cy="187.8" r="2.6" />
  <circle class="hole" cx="469" cy="241.8" r="2.6" />
  <circle class="hole" cx="469" cy="259.8" r="2.6" />
  <circle class="hole" cx="469" cy="277.8" r="2.6" />
  <circle class="hole" cx="469" cy="295.8" r="2.6" />
  <circle class="hole" cx="469" cy="313.8" r="2.6" />
  <circle class="hole" cx="487" cy="60" r="2.6" />
  <circle class="hole" cx="487" cy="78" r="2.6" />
  <circle class="hole" cx="487" cy="351.6" r="2.6" />
  <circle class="hole" cx="487" cy="369.6" r="2.6" />
  <circle class="hole" cx="487" cy="115.80000000000001" r="2.6" />
  <circle class="hole" cx="487" cy="133.8" r="2.6" />
  <circle class="hole" cx="487" cy="151.8" r="2.6" />
  <circle class="hole" cx="487" cy="169.8" r="2.6" />
  <circle class="hole" cx="487" cy="187.8" r="2.6" />
  <circle class="hole" cx="487" cy="241.8" r="2.6" />
  <circle class="hole" cx="487" cy="259.8" r="2.6" />
  <circle class="hole" cx="487" cy="277.8" r="2.6" />
  <circle class="hole" cx="487" cy="295.8" r="2.6" />
  <circle class="hole" cx="487" cy="313.8" r="2.6" />
  <circle class="hole" cx="505" cy="60" r="2.6" />
  <circle class="hole" cx="505" cy="78" r="2.6" />
  <circle class="hole" cx="505" cy="351.6" r="2.6" />
  <circle class="hole" cx="505" cy="369.6" r="2.6" />
  <circle class="hole" cx="505" cy="115.80000000000001" r="2.6" />
  <circle class="hole" cx="505" cy="133.8" r="2.6" />
  <circle class="hole" cx="505" cy="151.8" r="2.6" />
  <circle class="hole" cx="505" cy="169.8" r="2.6" />
  <circle class="hole" cx="505" cy="187.8" r="2.6" />
  <circle class="hole" cx="505" cy="241.8" r="2.6" />
  <circle class="hole" cx="505" cy="259.8" r="2.6" />
  <circle class="hole" cx="505" cy="277.8" r="2.6" />
  <circle class="hole" cx="505" cy="295.8" r="2.6" />
  <circle class="hole" cx="505" cy="313.8" r="2.6" />
  <circle class="hole" cx="523" cy="60" r="2.6" />
  <circle class="hole" cx="523" cy="78" r="2.6" />
  <circle class="hole" cx="523" cy="351.6" r="2.6" />
  <circle class="hole" cx="523" cy="369.6" r="2.6" />
  <circle class="hole" cx="523" cy="115.80000000000001" r="2.6" />
  <circle class="hole" cx="523" cy="133.8" r="2.6" />
  <circle class="hole" cx="523" cy="151.8" r="2.6" />
  <circle class="hole" cx="523" cy="169.8" r="2.6" />
  <circle class="hole" cx="523" cy="187.8" r="2.6" />
  <circle class="hole" cx="523" cy="241.8" r="2.6" />
  <circle class="hole" cx="523" cy="259.8" r="2.6" />
  <circle class="hole" cx="523" cy="277.8" r="2.6" />
  <circle class="hole" cx="523" cy="295.8" r="2.6" />
  <circle class="hole" cx="523" cy="313.8" r="2.6" />
  <text class="col-num" x="523" y="100.50000000000001" text-anchor="middle">15</text>
  <text class="col-num" x="523" y="335.7" text-anchor="middle">15</text>
  <circle class="hole" cx="541" cy="60" r="2.6" />
  <circle class="hole" cx="541" cy="78" r="2.6" />
  <circle class="hole" cx="541" cy="351.6" r="2.6" />
  <circle class="hole" cx="541" cy="369.6" r="2.6" />
  <circle class="hole" cx="541" cy="115.80000000000001" r="2.6" />
  <circle class="hole" cx="541" cy="133.8" r="2.6" />
  <circle class="hole" cx="541" cy="151.8" r="2.6" />
  <circle class="hole" cx="541" cy="169.8" r="2.6" />
  <circle class="hole" cx="541" cy="187.8" r="2.6" />
  <circle class="hole" cx="541" cy="241.8" r="2.6" />
  <circle class="hole" cx="541" cy="259.8" r="2.6" />
  <circle class="hole" cx="541" cy="277.8" r="2.6" />
  <circle class="hole" cx="541" cy="295.8" r="2.6" />
  <circle class="hole" cx="541" cy="313.8" r="2.6" />
  <circle class="hole" cx="559" cy="60" r="2.6" />
  <circle class="hole" cx="559" cy="78" r="2.6" />
  <circle class="hole" cx="559" cy="351.6" r="2.6" />
  <circle class="hole" cx="559" cy="369.6" r="2.6" />
  <circle class="hole" cx="559" cy="115.80000000000001" r="2.6" />
  <circle class="hole" cx="559" cy="133.8" r="2.6" />
  <circle class="hole" cx="559" cy="151.8" r="2.6" />
  <circle class="hole" cx="559" cy="169.8" r="2.6" />
  <circle class="hole" cx="559" cy="187.8" r="2.6" />
  <circle class="hole" cx="559" cy="241.8" r="2.6" />
  <circle class="hole" cx="559" cy="259.8" r="2.6" />
  <circle class="hole" cx="559" cy="277.8" r="2.6" />
  <circle class="hole" cx="559" cy="295.8" r="2.6" />
  <circle class="hole" cx="559" cy="313.8" r="2.6" />
  <circle class="hole" cx="577" cy="115.80000000000001" r="2.6" />
  <circle class="hole" cx="577" cy="133.8" r="2.6" />
  <circle class="hole" cx="577" cy="151.8" r="2.6" />
  <circle class="hole" cx="577" cy="169.8" r="2.6" />
  <circle class="hole" cx="577" cy="187.8" r="2.6" />
  <circle class="hole" cx="577" cy="241.8" r="2.6" />
  <circle class="hole" cx="577" cy="259.8" r="2.6" />
  <circle class="hole" cx="577" cy="277.8" r="2.6" />
  <circle class="hole" cx="577" cy="295.8" r="2.6" />
  <circle class="hole" cx="577" cy="313.8" r="2.6" />
  <circle class="hole" cx="595" cy="60" r="2.6" />
  <circle class="hole" cx="595" cy="78" r="2.6" />
  <circle class="hole" cx="595" cy="351.6" r="2.6" />
  <circle class="hole" cx="595" cy="369.6" r="2.6" />
  <circle class="hole" cx="595" cy="115.80000000000001" r="2.6" />
  <circle class="hole" cx="595" cy="133.8" r="2.6" />
  <circle class="hole" cx="595" cy="151.8" r="2.6" />
  <circle class="hole" cx="595" cy="169.8" r="2.6" />
  <circle class="hole" cx="595" cy="187.8" r="2.6" />
  <circle class="hole" cx="595" cy="241.8" r="2.6" />
  <circle class="hole" cx="595" cy="259.8" r="2.6" />
  <circle class="hole" cx="595" cy="277.8" r="2.6" />
  <circle class="hole" cx="595" cy="295.8" r="2.6" />
  <circle class="hole" cx="595" cy="313.8" r="2.6" />
  <circle class="hole" cx="613" cy="60" r="2.6" />
  <circle class="hole" cx="613" cy="78" r="2.6" />
  <circle class="hole" cx="613" cy="351.6" r="2.6" />
  <circle class="hole" cx="613" cy="369.6" r="2.6" />
  <circle class="hole" cx="613" cy="115.80000000000001" r="2.6" />
  <circle class="hole" cx="613" cy="133.8" r="2.6" />
  <circle class="hole" cx="613" cy="151.8" r="2.6" />
  <circle class="hole" cx="613" cy="169.8" r="2.6" />
  <circle class="hole" cx="613" cy="187.8" r="2.6" />
  <circle class="hole" cx="613" cy="241.8" r="2.6" />
  <circle class="hole" cx="613" cy="259.8" r="2.6" />
  <circle class="hole" cx="613" cy="277.8" r="2.6" />
  <circle class="hole" cx="613" cy="295.8" r="2.6" />
  <circle class="hole" cx="613" cy="313.8" r="2.6" />
  <text class="col-num" x="613" y="100.50000000000001" text-anchor="middle">20</text>
  <text class="col-num" x="613" y="335.7" text-anchor="middle">20</text>
  <circle class="hole" cx="631" cy="60" r="2.6" />
  <circle class="hole" cx="631" cy="78" r="2.6" />
  <circle class="hole" cx="631" cy="351.6" r="2.6" />
  <circle class="hole" cx="631" cy="369.6" r="2.6" />
  <circle class="hole" cx="631" cy="115.80000000000001" r="2.6" />
  <circle class="hole" cx="631" cy="133.8" r="2.6" />
  <circle class="hole" cx="631" cy="151.8" r="2.6" />
  <circle class="hole" cx="631" cy="169.8" r="2.6" />
  <circle class="hole" cx="631" cy="187.8" r="2.6" />
  <circle class="hole" cx="631" cy="241.8" r="2.6" />
  <circle class="hole" cx="631" cy="259.8" r="2.6" />
  <circle class="hole" cx="631" cy="277.8" r="2.6" />
  <circle class="hole" cx="631" cy="295.8" r="2.6" />
  <circle class="hole" cx="631" cy="313.8" r="2.6" />
  <circle class="hole" cx="649" cy="60" r="2.6" />
  <circle class="hole" cx="649" cy="78" r="2.6" />
  <circle class="hole" cx="649" cy="351.6" r="2.6" />
  <circle class="hole" cx="649" cy="369.6" r="2.6" />
  <circle class="hole" cx="649" cy="115.80000000000001" r="2.6" />
  <circle class="hole" cx="649" cy="133.8" r="2.6" />
  <circle class="hole" cx="649" cy="151.8" r="2.6" />
  <circle class="hole" cx="649" cy="169.8" r="2.6" />
  <circle class="hole" cx="649" cy="187.8" r="2.6" />
  <circle class="hole" cx="649" cy="241.8" r="2.6" />
  <circle class="hole" cx="649" cy="259.8" r="2.6" />
  <circle class="hole" cx="649" cy="277.8" r="2.6" />
  <circle class="hole" cx="649" cy="295.8" r="2.6" />
  <circle class="hole" cx="649" cy="313.8" r="2.6" />
  <circle class="hole" cx="667" cy="60" r="2.6" />
  <circle class="hole" cx="667" cy="78" r="2.6" />
  <circle class="hole" cx="667" cy="351.6" r="2.6" />
  <circle class="hole" cx="667" cy="369.6" r="2.6" />
  <circle class="hole" cx="667" cy="115.80000000000001" r="2.6" />
  <circle class="hole" cx="667" cy="133.8" r="2.6" />
  <circle class="hole" cx="667" cy="151.8" r="2.6" />
  <circle class="hole" cx="667" cy="169.8" r="2.6" />
  <circle class="hole" cx="667" cy="187.8" r="2.6" />
  <circle class="hole" cx="667" cy="241.8" r="2.6" />
  <circle class="hole" cx="667" cy="259.8" r="2.6" />
  <circle class="hole" cx="667" cy="277.8" r="2.6" />
  <circle class="hole" cx="667" cy="295.8" r="2.6" />
  <circle class="hole" cx="667" cy="313.8" r="2.6" />
  <circle class="hole" cx="685" cy="115.80000000000001" r="2.6" />
  <circle class="hole" cx="685" cy="133.8" r="2.6" />
  <circle class="hole" cx="685" cy="151.8" r="2.6" />
  <circle class="hole" cx="685" cy="169.8" r="2.6" />
  <circle class="hole" cx="685" cy="187.8" r="2.6" />
  <circle class="hole" cx="685" cy="241.8" r="2.6" />
  <circle class="hole" cx="685" cy="259.8" r="2.6" />
  <circle class="hole" cx="685" cy="277.8" r="2.6" />
  <circle class="hole" cx="685" cy="295.8" r="2.6" />
  <circle class="hole" cx="685" cy="313.8" r="2.6" />
  <circle class="hole" cx="703" cy="60" r="2.6" />
  <circle class="hole" cx="703" cy="78" r="2.6" />
  <circle class="hole" cx="703" cy="351.6" r="2.6" />
  <circle class="hole" cx="703" cy="369.6" r="2.6" />
  <circle class="hole" cx="703" cy="115.80000000000001" r="2.6" />
  <circle class="hole" cx="703" cy="133.8" r="2.6" />
  <circle class="hole" cx="703" cy="151.8" r="2.6" />
  <circle class="hole" cx="703" cy="169.8" r="2.6" />
  <circle class="hole" cx="703" cy="187.8" r="2.6" />
  <circle class="hole" cx="703" cy="241.8" r="2.6" />
  <circle class="hole" cx="703" cy="259.8" r="2.6" />
  <circle class="hole" cx="703" cy="277.8" r="2.6" />
  <circle class="hole" cx="703" cy="295.8" r="2.6" />
  <circle class="hole" cx="703" cy="313.8" r="2.6" />
  <text class="col-num" x="703" y="100.50000000000001" text-anchor="middle">25</text>
  <text class="col-num" x="703" y="335.7" text-anchor="middle">25</text>
  <circle class="hole" cx="721" cy="60" r="2.6" />
  <circle class="hole" cx="721" cy="78" r="2.6" />
  <circle class="hole" cx="721" cy="351.6" r="2.6" />
  <circle class="hole" cx="721" cy="369.6" r="2.6" />
  <circle class="hole" cx="721" cy="115.80000000000001" r="2.6" />
  <circle class="hole" cx="721" cy="133.8" r="2.6" />
  <circle class="hole" cx="721" cy="151.8" r="2.6" />
  <circle class="hole" cx="721" cy="169.8" r="2.6" />
  <circle class="hole" cx="721" cy="187.8" r="2.6" />
  <circle class="hole" cx="721" cy="241.8" r="2.6" />
  <circle class="hole" cx="721" cy="259.8" r="2.6" />
  <circle class="hole" cx="721" cy="277.8" r="2.6" />
  <circle class="hole" cx="721" cy="295.8" r="2.6" />
  <circle class="hole" cx="721" cy="313.8" r="2.6" />
  <circle class="hole" cx="739" cy="60" r="2.6" />
  <circle class="hole" cx="739" cy="78" r="2.6" />
  <circle class="hole" cx="739" cy="351.6" r="2.6" />
  <circle class="hole" cx="739" cy="369.6" r="2.6" />
  <circle class="hole" cx="739" cy="115.80000000000001" r="2.6" />
  <circle class="hole" cx="739" cy="133.8" r="2.6" />
  <circle class="hole" cx="739" cy="151.8" r="2.6" />
  <circle class="hole" cx="739" cy="169.8" r="2.6" />
  <circle class="hole" cx="739" cy="187.8" r="2.6" />
  <circle class="hole" cx="739" cy="241.8" r="2.6" />
  <circle class="hole" cx="739" cy="259.8" r="2.6" />
  <circle class="hole" cx="739" cy="277.8" r="2.6" />
  <circle class="hole" cx="739" cy="295.8" r="2.6" />
  <circle class="hole" cx="739" cy="313.8" r="2.6" />
  <circle class="hole" cx="757" cy="60" r="2.6" />
  <circle class="hole" cx="757" cy="78" r="2.6" />
  <circle class="hole" cx="757" cy="351.6" r="2.6" />
  <circle class="hole" cx="757" cy="369.6" r="2.6" />
  <circle class="hole" cx="757" cy="115.80000000000001" r="2.6" />
  <circle class="hole" cx="757" cy="133.8" r="2.6" />
  <circle class="hole" cx="757" cy="151.8" r="2.6" />
  <circle class="hole" cx="757" cy="169.8" r="2.6" />
  <circle class="hole" cx="757" cy="187.8" r="2.6" />
  <circle class="hole" cx="757" cy="241.8" r="2.6" />
  <circle class="hole" cx="757" cy="259.8" r="2.6" />
  <circle class="hole" cx="757" cy="277.8" r="2.6" />
  <circle class="hole" cx="757" cy="295.8" r="2.6" />
  <circle class="hole" cx="757" cy="313.8" r="2.6" />
  <circle class="hole" cx="775" cy="60" r="2.6" />
  <circle class="hole" cx="775" cy="78" r="2.6" />
  <circle class="hole" cx="775" cy="351.6" r="2.6" />
  <circle class="hole" cx="775" cy="369.6" r="2.6" />
  <circle class="hole" cx="775" cy="115.80000000000001" r="2.6" />
  <circle class="hole" cx="775" cy="133.8" r="2.6" />
  <circle class="hole" cx="775" cy="151.8" r="2.6" />
  <circle class="hole" cx="775" cy="169.8" r="2.6" />
  <circle class="hole" cx="775" cy="187.8" r="2.6" />
  <circle class="hole" cx="775" cy="241.8" r="2.6" />
  <circle class="hole" cx="775" cy="259.8" r="2.6" />
  <circle class="hole" cx="775" cy="277.8" r="2.6" />
  <circle class="hole" cx="775" cy="295.8" r="2.6" />
  <circle class="hole" cx="775" cy="313.8" r="2.6" />
  <circle class="hole" cx="793" cy="115.80000000000001" r="2.6" />
  <circle class="hole" cx="793" cy="133.8" r="2.6" />
  <circle class="hole" cx="793" cy="151.8" r="2.6" />
  <circle class="hole" cx="793" cy="169.8" r="2.6" />
  <circle class="hole" cx="793" cy="187.8" r="2.6" />
  <circle class="hole" cx="793" cy="241.8" r="2.6" />
  <circle class="hole" cx="793" cy="259.8" r="2.6" />
  <circle class="hole" cx="793" cy="277.8" r="2.6" />
  <circle class="hole" cx="793" cy="295.8" r="2.6" />
  <circle class="hole" cx="793" cy="313.8" r="2.6" />
  <text class="col-num" x="793" y="100.50000000000001" text-anchor="middle">30</text>
  <text class="col-num" x="793" y="335.7" text-anchor="middle">30</text>
  <text class="row-lbl" x="253" y="119.30000000000001" text-anchor="end">j</text>
  <text class="row-lbl" x="829" y="119.30000000000001">j</text>
  <text class="row-lbl" x="253" y="137.3" text-anchor="end">i</text>
  <text class="row-lbl" x="829" y="137.3">i</text>
  <text class="row-lbl" x="253" y="155.3" text-anchor="end">h</text>
  <text class="row-lbl" x="829" y="155.3">h</text>
  <text class="row-lbl" x="253" y="173.3" text-anchor="end">g</text>
  <text class="row-lbl" x="829" y="173.3">g</text>
  <text class="row-lbl" x="253" y="191.3" text-anchor="end">f</text>
  <text class="row-lbl" x="829" y="191.3">f</text>
  <text class="row-lbl" x="253" y="245.3" text-anchor="end">e</text>
  <text class="row-lbl" x="829" y="245.3">e</text>
  <text class="row-lbl" x="253" y="263.3" text-anchor="end">d</text>
  <text class="row-lbl" x="829" y="263.3">d</text>
  <text class="row-lbl" x="253" y="281.3" text-anchor="end">c</text>
  <text class="row-lbl" x="829" y="281.3">c</text>
  <text class="row-lbl" x="253" y="299.3" text-anchor="end">b</text>
  <text class="row-lbl" x="829" y="299.3">b</text>
  <text class="row-lbl" x="253" y="317.3" text-anchor="end">a</text>
  <text class="row-lbl" x="829" y="317.3">a</text>
  <rect class="ard" x="18" y="84" width="170" height="310" rx="10" />
  <text class="ard-title" x="103" y="114" text-anchor="middle">Arduino UNO Q</text>
  <text class="ard-sub" x="103" y="132" text-anchor="middle">3.3V</text>
  <rect class="ard-chip" x="42" y="154" width="50" height="40" rx="4" />
  <rect class="ard-chip" x="102" y="154" width="46" height="40" rx="4" />
  <circle class="ard-pad" cx="188" cy="118" r="5" />
  <text class="pin" x="175" y="122" text-anchor="end">D7</text>
  <circle class="ard-pad" cx="188" cy="148" r="5" />
  <text class="pin" x="175" y="152" text-anchor="end">D4</text>
  <circle class="ard-pad" cx="188" cy="178" r="5" />
  <text class="pin" x="175" y="182" text-anchor="end">D3</text>
  <circle class="ard-pad" cx="188" cy="208" r="5" />
  <text class="pin" x="175" y="212" text-anchor="end">D2</text>
  <circle class="ard-pad" cx="188" cy="296" r="5" />
  <text class="pin" x="175" y="300" text-anchor="end">GND</text>
  <circle class="ard-pad" cx="188" cy="330" r="5" />
  <text class="pin" x="175" y="334" text-anchor="end">3V3</text>
  <path class="w" stroke="#2b3136" d="M188 296 L221 296 Q230 296 230 305 L230 342.6 Q230 351.6 239 351.6 L271 351.6 Q271 351.6 NaN NaN L271 351.6" />
  <circle class="w-end" fill="#2b3136" cx="188" cy="296" r="3.6" />
  <circle class="w-end" fill="#2b3136" cx="271" cy="351.6" r="3.6" />
  <path class="w" stroke="#d94a3d" d="M188 330 L203 330 Q212 330 212 339 L212 360.6 Q212 369.6 221 369.6 L271 369.6 Q271 369.6 NaN NaN L271 369.6" />
  <circle class="w-end" fill="#d94a3d" cx="188" cy="330" r="3.6" />
  <circle class="w-end" fill="#d94a3d" cx="271" cy="369.6" r="3.6" />
  <path class="w" stroke="#0d8ce0" d="M188 208 L196 208 Q204 208 204 216 L204 219.8 Q204 228.8 213 228.8 L300.5 228.8 Q307 228.8 307 235.3 L307 241.8" />
  <circle class="w-end" fill="#0d8ce0" cx="188" cy="208" r="3.6" />
  <circle class="w-end" fill="#0d8ce0" cx="307" cy="241.8" r="3.6" />
  <path class="w" stroke="#8b5cf6" d="M188 178 L211 178 Q220 178 220 187 L220 212.8 Q220 221.8 229 221.8 L442 221.8 Q451 221.8 451 230.8 L451 241.8" />
  <circle class="w-end" fill="#8b5cf6" cx="188" cy="178" r="3.6" />
  <circle class="w-end" fill="#8b5cf6" cx="451" cy="241.8" r="3.6" />
  <path class="w" stroke="#f97316" d="M188 148 L227 148 Q236 148 236 157 L236 205.8 Q236 214.8 245 214.8 L586 214.8 Q595 214.8 595 223.8 L595 241.8" />
  <circle class="w-end" fill="#f97316" cx="188" cy="148" r="3.6" />
  <circle class="w-end" fill="#f97316" cx="595" cy="241.8" r="3.6" />
  <path class="w" stroke="#ec4899" d="M188 118 L241 118 Q250 118 250 109 L250 35 Q250 26 259 26 L712 26 Q721 26 721 35 L721 115.80000000000001" />
  <circle class="w-end" fill="#ec4899" cx="188" cy="118" r="3.6" />
  <circle class="w-end" fill="#ec4899" cx="721" cy="115.80000000000001" r="3.6" />
  <path class="leg" d="M307 277.8 L361 277.8" />
  <g transform="translate(334 277.8) rotate(0)">
    <rect class="res-body" x="-15" y="-5.5" width="30" height="11" rx="4.5" />
    <rect x="-10.5" y="-5.5" width="3" height="11" fill="#c8102e" />
    <rect x="-5.5"  y="-5.5" width="3" height="11" fill="#c8102e" />
    <rect x="-0.5"  y="-5.5" width="3" height="11" fill="#8a5a2b" />
    <rect x="7"     y="-5.5" width="3" height="11" fill="#d4a017" />
  </g>
  <path class="leg" d="M361 313.8 L361 311.8" />
  <path class="leg" d="M379 313.8 L379 311.8" />
  <circle class="led-halo" cx="370" cy="309.8" r="12.5" />
  <circle class="led-body" fill="#e02020" cx="370" cy="309.8" r="10" />
  <circle class="led-shine" cx="366.8" cy="306.6" r="2.8" />
  <circle class="plus-badge" cx="361" cy="297.8" r="6.5" />
  <text class="plus-mark" x="361" y="301.6" text-anchor="middle">+</text>
  <path class="w" stroke="#2b3136" d="M379 295.8 L379 351.6" />
  <circle class="w-end" fill="#2b3136" cx="379" cy="295.8" r="3.6" />
  <circle class="w-end" fill="#2b3136" cx="379" cy="351.6" r="3.6" />
  <text class="comp-lbl" x="303" y="263.8" text-anchor="start">Kırmızı LED / Red</text>
  <text class="comp-sub" x="334" y="299.8" text-anchor="middle">220Ω</text>
  <path class="leg" d="M451 277.8 L505 277.8" />
  <g transform="translate(478 277.8) rotate(0)">
    <rect class="res-body" x="-15" y="-5.5" width="30" height="11" rx="4.5" />
    <rect x="-10.5" y="-5.5" width="3" height="11" fill="#c8102e" />
    <rect x="-5.5"  y="-5.5" width="3" height="11" fill="#c8102e" />
    <rect x="-0.5"  y="-5.5" width="3" height="11" fill="#8a5a2b" />
    <rect x="7"     y="-5.5" width="3" height="11" fill="#d4a017" />
  </g>
  <path class="leg" d="M505 313.8 L505 311.8" />
  <path class="leg" d="M523 313.8 L523 311.8" />
  <circle class="led-halo" cx="514" cy="309.8" r="12.5" />
  <circle class="led-body" fill="#e0b020" cx="514" cy="309.8" r="10" />
  <circle class="led-shine" cx="510.8" cy="306.6" r="2.8" />
  <circle class="plus-badge" cx="505" cy="297.8" r="6.5" />
  <text class="plus-mark" x="505" y="301.6" text-anchor="middle">+</text>
  <path class="w" stroke="#2b3136" d="M523 295.8 L523 351.6" />
  <circle class="w-end" fill="#2b3136" cx="523" cy="295.8" r="3.6" />
  <circle class="w-end" fill="#2b3136" cx="523" cy="351.6" r="3.6" />
  <text class="comp-lbl" x="447" y="263.8" text-anchor="start">Sarı LED / Yellow</text>
  <text class="comp-sub" x="478" y="299.8" text-anchor="middle">220Ω</text>
  <path class="leg" d="M595 277.8 L649 277.8" />
  <g transform="translate(622 277.8) rotate(0)">
    <rect class="res-body" x="-15" y="-5.5" width="30" height="11" rx="4.5" />
    <rect x="-10.5" y="-5.5" width="3" height="11" fill="#c8102e" />
    <rect x="-5.5"  y="-5.5" width="3" height="11" fill="#c8102e" />
    <rect x="-0.5"  y="-5.5" width="3" height="11" fill="#8a5a2b" />
    <rect x="7"     y="-5.5" width="3" height="11" fill="#d4a017" />
  </g>
  <path class="leg" d="M649 313.8 L649 311.8" />
  <path class="leg" d="M667 313.8 L667 311.8" />
  <circle class="led-halo" cx="658" cy="309.8" r="12.5" />
  <circle class="led-body" fill="#20b050" cx="658" cy="309.8" r="10" />
  <circle class="led-shine" cx="654.8" cy="306.6" r="2.8" />
  <circle class="plus-badge" cx="649" cy="297.8" r="6.5" />
  <text class="plus-mark" x="649" y="301.6" text-anchor="middle">+</text>
  <path class="w" stroke="#2b3136" d="M667 295.8 L667 351.6" />
  <circle class="w-end" fill="#2b3136" cx="667" cy="295.8" r="3.6" />
  <circle class="w-end" fill="#2b3136" cx="667" cy="351.6" r="3.6" />
  <text class="comp-lbl" x="591" y="263.8" text-anchor="start">Yeşil LED / Green</text>
  <text class="comp-sub" x="622" y="299.8" text-anchor="middle">220Ω</text>
  <rect class="btn-body" x="713" y="179.8" width="52" height="70" rx="4" />
  <circle class="btn-cap" cx="739" cy="214.8" r="11" />
  <circle class="btn-leg" cx="721" cy="187.8" r="3.2" />
  <circle class="btn-leg" cx="757" cy="187.8" r="3.2" />
  <circle class="btn-leg" cx="721" cy="241.8" r="3.2" />
  <circle class="btn-leg" cx="757" cy="241.8" r="3.2" />
  <path class="leg" d="M721 295.8 L721 351.6" />
  <g transform="translate(721 323.70000000000005) rotate(90)">
    <rect class="res-body" x="-15" y="-5.5" width="30" height="11" rx="4.5" />
    <rect x="-10.5" y="-5.5" width="3" height="11" fill="#8a5a2b" />
    <rect x="-5.5"  y="-5.5" width="3" height="11" fill="#1a1a1a" />
    <rect x="-0.5"  y="-5.5" width="3" height="11" fill="#f0932b" />
    <rect x="7"     y="-5.5" width="3" height="11" fill="#d4a017" />
  </g>
  <path class="w" stroke="#d94a3d" d="M757 369.6 L757 313.8" />
  <circle class="w-end" fill="#d94a3d" cx="757" cy="369.6" r="3.6" />
  <circle class="w-end" fill="#d94a3d" cx="757" cy="313.8" r="3.6" />
  <text class="comp-lbl" x="739" y="155.8" text-anchor="middle">Buton / Button</text>
  <text class="comp-sub" x="697" y="325.8" text-anchor="middle">10kΩ</text>
  <rect class="tag" fill="#0d8ce0" x="311" y="232.8" width="24" height="16" rx="4" />
  <text class="tag-txt" x="323" y="244.4" text-anchor="middle">D2</text>
  <rect class="tag" fill="#8b5cf6" x="455" y="232.8" width="24" height="16" rx="4" />
  <text class="tag-txt" x="467" y="244.4" text-anchor="middle">D3</text>
  <rect class="tag" fill="#f97316" x="599" y="232.8" width="24" height="16" rx="4" />
  <text class="tag-txt" x="611" y="244.4" text-anchor="middle">D4</text>
  <rect class="tag" fill="#ec4899" x="727" y="93.80000000000001" width="24" height="16" rx="4" />
  <text class="tag-txt" x="739" y="105.4" text-anchor="middle">D7</text>
  <rect class="tag" fill="#d94a3d" x="761.5" y="304.8" width="31" height="16" rx="4" />
  <text class="tag-txt" x="777" y="316.40000000000003" text-anchor="middle">3V3</text>
  <g transform="translate(18, 423.40000000000003)">
    <line class="w" stroke="#0d8ce0" x1="0" y1="0" x2="26" y2="0" />
    <text class="legend" x="34" y="4"><tspan class="legend-b">D2</tspan> → kırmızı LED / red LED</text>
    <line class="w" stroke="#8b5cf6" x1="210" y1="0" x2="236" y2="0" />
    <text class="legend" x="244" y="4"><tspan class="legend-b">D3</tspan> → sarı LED / yellow LED</text>
    <line class="w" stroke="#f97316" x1="420" y1="0" x2="446" y2="0" />
    <text class="legend" x="454" y="4"><tspan class="legend-b">D4</tspan> → yeşil LED / green LED</text>
    <line class="w" stroke="#ec4899" x1="630" y1="0" x2="656" y2="0" />
    <text class="legend" x="664" y="4"><tspan class="legend-b">D7</tspan> → buton / button</text>
    <line class="w" stroke="#d94a3d" x1="0" y1="24" x2="26" y2="24" />
    <text class="legend" x="34" y="28"><tspan class="legend-b">3V3</tspan> → + hattı / + rail</text>
    <line class="w" stroke="#2b3136" x1="210" y1="24" x2="236" y2="24" />
    <text class="legend" x="244" y="28"><tspan class="legend-b">GND</tspan> → − hattı / − rail</text>
    <circle class="plus-badge" cx="433" cy="24" r="6.5" /><text class="plus-mark" x="433" y="27.8" text-anchor="middle">+</text>
    <text class="legend" x="447" y="28">= LED'in uzun bacağı / the LED's long leg</text>
  </g>
</svg>
