<svg xmlns="http://www.w3.org/2000/svg" viewBox="0 0 800 369" role="img" aria-label="Trafik lambasi breadboard yerlesimi / Traffic light breadboard layout">
  <title>Trafik lambasi breadboard yerlesimi / Traffic light breadboard layout</title>
  <style>
  .bb         { fill: #e9ebed; stroke: #c2c8cc; stroke-width: 1.5; }
  .channel    { fill: #d2d7db; }
  .hole       { fill: #98a2a8; }
  .rail-plus  { stroke: #d94a3d; stroke-width: 2; }
  .rail-minus { stroke: #3f7fd0; stroke-width: 2; }
  .rail-lbl   { font-family: ui-sans-serif, system-ui, sans-serif; font-size: 13px; font-weight: 700; }
  .rail-lbl.plus  { fill: #d94a3d; }
  .rail-lbl.minus { fill: #3f7fd0; }
  .col-num    { font-family: ui-monospace, monospace; font-size: 9.5px; fill: #6f7d83; }
  .row-lbl    { font-family: ui-monospace, monospace; font-size: 10px; font-weight: 700; fill: #6f7d83; }

  .ard        { fill: #0f7a80; stroke: #0a5a5f; stroke-width: 2; }
  .ard-title  { font-family: ui-sans-serif, system-ui, sans-serif; font-size: 14px; font-weight: 700; fill: #eafafa; }
  .ard-sub    { font-family: ui-sans-serif, system-ui, sans-serif; font-size: 11px; fill: #a9dfe2; }
  .ard-chip   { fill: #0a5a5f; }
  .ard-pad    { fill: #f5c542; stroke: #a8862a; stroke-width: 1.2; }
  .pin        { font-family: ui-monospace, monospace; font-size: 11px; font-weight: 700; fill: #eafafa; }

  .w          { fill: none; stroke-width: 3.4; stroke-linecap: round; }
  .leg        { fill: none; stroke: #8d949a; stroke-width: 2; stroke-linecap: round; }
  .res-body   { fill: #dccfa8; stroke: #a89876; stroke-width: 1; }
  .led-halo   { fill: rgba(255,255,255,.75); }
  .led-body   { stroke: rgba(0,0,0,.35); stroke-width: 1; }
  .led-shine  { fill: rgba(255,255,255,.7); }
  .btn-body   { fill: #4a5157; stroke: #2e3438; stroke-width: 1.5; }
  .btn-cap    { fill: #bcc3c8; stroke: #7d868c; stroke-width: 1.2; }
  .btn-leg    { fill: #c9a227; }

  .comp-lbl   { font-family: ui-sans-serif, system-ui, sans-serif; font-size: 11px; font-weight: 700; fill: var(--text, #102b2e); }
  .plus-mark  { font-family: ui-sans-serif, system-ui, sans-serif; font-size: 13px; font-weight: 700; fill: var(--text, #102b2e); }
  .legend     { font-family: ui-sans-serif, system-ui, sans-serif; font-size: 11px; fill: var(--text-muted, #5a6f74); }
  .note       { font-family: ui-sans-serif, system-ui, sans-serif; font-size: 11.5px; font-weight: 700; fill: var(--text, #102b2e); }
  .badge      { fill: #00979d; }
  .badge-txt  { font-family: ui-sans-serif, system-ui, sans-serif; font-size: 11px; font-weight: 700; fill: #fff; }
</style>
  <rect class="bb" x="262" y="44" width="465" height="271.5" rx="6" />
  <line class="rail-minus" x1="267.25" y1="49" x2="721.75" y2="49" />
  <text class="rail-lbl minus" x="253" y="63" text-anchor="end">−</text>
  <text class="rail-lbl minus" x="736" y="63">−</text>
  <line class="rail-plus" x1="267.25" y1="84" x2="721.75" y2="84" />
  <text class="rail-lbl plus" x="253" y="78" text-anchor="end">+</text>
  <text class="rail-lbl plus" x="736" y="78">+</text>
  <line class="rail-minus" x1="267.25" y1="274" x2="721.75" y2="274" />
  <text class="rail-lbl minus" x="253" y="288" text-anchor="end">−</text>
  <text class="rail-lbl minus" x="736" y="288">−</text>
  <line class="rail-plus" x1="267.25" y1="309" x2="721.75" y2="309" />
  <text class="rail-lbl plus" x="253" y="303" text-anchor="end">+</text>
  <text class="rail-lbl plus" x="736" y="303">+</text>
  <rect class="channel" x="267.25" y="170.75" width="454.5" height="16.5" rx="2" />
  <circle class="hole" cx="269.5" cy="59" r="2.3" />
  <circle class="hole" cx="269.5" cy="74" r="2.3" />
  <circle class="hole" cx="269.5" cy="284" r="2.3" />
  <circle class="hole" cx="269.5" cy="299" r="2.3" />
  <circle class="hole" cx="269.5" cy="105.5" r="2.3" />
  <circle class="hole" cx="269.5" cy="120.5" r="2.3" />
  <circle class="hole" cx="269.5" cy="135.5" r="2.3" />
  <circle class="hole" cx="269.5" cy="150.5" r="2.3" />
  <circle class="hole" cx="269.5" cy="165.5" r="2.3" />
  <circle class="hole" cx="269.5" cy="192.5" r="2.3" />
  <circle class="hole" cx="269.5" cy="207.5" r="2.3" />
  <circle class="hole" cx="269.5" cy="222.5" r="2.3" />
  <circle class="hole" cx="269.5" cy="237.5" r="2.3" />
  <circle class="hole" cx="269.5" cy="252.5" r="2.3" />
  <text class="col-num" x="269.5" y="92.75" text-anchor="middle">1</text>
  <text class="col-num" x="269.5" y="183" text-anchor="middle">1</text>
  <circle class="hole" cx="284.5" cy="59" r="2.3" />
  <circle class="hole" cx="284.5" cy="74" r="2.3" />
  <circle class="hole" cx="284.5" cy="284" r="2.3" />
  <circle class="hole" cx="284.5" cy="299" r="2.3" />
  <circle class="hole" cx="284.5" cy="105.5" r="2.3" />
  <circle class="hole" cx="284.5" cy="120.5" r="2.3" />
  <circle class="hole" cx="284.5" cy="135.5" r="2.3" />
  <circle class="hole" cx="284.5" cy="150.5" r="2.3" />
  <circle class="hole" cx="284.5" cy="165.5" r="2.3" />
  <circle class="hole" cx="284.5" cy="192.5" r="2.3" />
  <circle class="hole" cx="284.5" cy="207.5" r="2.3" />
  <circle class="hole" cx="284.5" cy="222.5" r="2.3" />
  <circle class="hole" cx="284.5" cy="237.5" r="2.3" />
  <circle class="hole" cx="284.5" cy="252.5" r="2.3" />
  <circle class="hole" cx="299.5" cy="59" r="2.3" />
  <circle class="hole" cx="299.5" cy="74" r="2.3" />
  <circle class="hole" cx="299.5" cy="284" r="2.3" />
  <circle class="hole" cx="299.5" cy="299" r="2.3" />
  <circle class="hole" cx="299.5" cy="105.5" r="2.3" />
  <circle class="hole" cx="299.5" cy="120.5" r="2.3" />
  <circle class="hole" cx="299.5" cy="135.5" r="2.3" />
  <circle class="hole" cx="299.5" cy="150.5" r="2.3" />
  <circle class="hole" cx="299.5" cy="165.5" r="2.3" />
  <circle class="hole" cx="299.5" cy="192.5" r="2.3" />
  <circle class="hole" cx="299.5" cy="207.5" r="2.3" />
  <circle class="hole" cx="299.5" cy="222.5" r="2.3" />
  <circle class="hole" cx="299.5" cy="237.5" r="2.3" />
  <circle class="hole" cx="299.5" cy="252.5" r="2.3" />
  <circle class="hole" cx="314.5" cy="59" r="2.3" />
  <circle class="hole" cx="314.5" cy="74" r="2.3" />
  <circle class="hole" cx="314.5" cy="284" r="2.3" />
  <circle class="hole" cx="314.5" cy="299" r="2.3" />
  <circle class="hole" cx="314.5" cy="105.5" r="2.3" />
  <circle class="hole" cx="314.5" cy="120.5" r="2.3" />
  <circle class="hole" cx="314.5" cy="135.5" r="2.3" />
  <circle class="hole" cx="314.5" cy="150.5" r="2.3" />
  <circle class="hole" cx="314.5" cy="165.5" r="2.3" />
  <circle class="hole" cx="314.5" cy="192.5" r="2.3" />
  <circle class="hole" cx="314.5" cy="207.5" r="2.3" />
  <circle class="hole" cx="314.5" cy="222.5" r="2.3" />
  <circle class="hole" cx="314.5" cy="237.5" r="2.3" />
  <circle class="hole" cx="314.5" cy="252.5" r="2.3" />
  <circle class="hole" cx="329.5" cy="59" r="2.3" />
  <circle class="hole" cx="329.5" cy="74" r="2.3" />
  <circle class="hole" cx="329.5" cy="284" r="2.3" />
  <circle class="hole" cx="329.5" cy="299" r="2.3" />
  <circle class="hole" cx="329.5" cy="105.5" r="2.3" />
  <circle class="hole" cx="329.5" cy="120.5" r="2.3" />
  <circle class="hole" cx="329.5" cy="135.5" r="2.3" />
  <circle class="hole" cx="329.5" cy="150.5" r="2.3" />
  <circle class="hole" cx="329.5" cy="165.5" r="2.3" />
  <circle class="hole" cx="329.5" cy="192.5" r="2.3" />
  <circle class="hole" cx="329.5" cy="207.5" r="2.3" />
  <circle class="hole" cx="329.5" cy="222.5" r="2.3" />
  <circle class="hole" cx="329.5" cy="237.5" r="2.3" />
  <circle class="hole" cx="329.5" cy="252.5" r="2.3" />
  <text class="col-num" x="329.5" y="92.75" text-anchor="middle">5</text>
  <text class="col-num" x="329.5" y="183" text-anchor="middle">5</text>
  <circle class="hole" cx="344.5" cy="105.5" r="2.3" />
  <circle class="hole" cx="344.5" cy="120.5" r="2.3" />
  <circle class="hole" cx="344.5" cy="135.5" r="2.3" />
  <circle class="hole" cx="344.5" cy="150.5" r="2.3" />
  <circle class="hole" cx="344.5" cy="165.5" r="2.3" />
  <circle class="hole" cx="344.5" cy="192.5" r="2.3" />
  <circle class="hole" cx="344.5" cy="207.5" r="2.3" />
  <circle class="hole" cx="344.5" cy="222.5" r="2.3" />
  <circle class="hole" cx="344.5" cy="237.5" r="2.3" />
  <circle class="hole" cx="344.5" cy="252.5" r="2.3" />
  <circle class="hole" cx="359.5" cy="59" r="2.3" />
  <circle class="hole" cx="359.5" cy="74" r="2.3" />
  <circle class="hole" cx="359.5" cy="284" r="2.3" />
  <circle class="hole" cx="359.5" cy="299" r="2.3" />
  <circle class="hole" cx="359.5" cy="105.5" r="2.3" />
  <circle class="hole" cx="359.5" cy="120.5" r="2.3" />
  <circle class="hole" cx="359.5" cy="135.5" r="2.3" />
  <circle class="hole" cx="359.5" cy="150.5" r="2.3" />
  <circle class="hole" cx="359.5" cy="165.5" r="2.3" />
  <circle class="hole" cx="359.5" cy="192.5" r="2.3" />
  <circle class="hole" cx="359.5" cy="207.5" r="2.3" />
  <circle class="hole" cx="359.5" cy="222.5" r="2.3" />
  <circle class="hole" cx="359.5" cy="237.5" r="2.3" />
  <circle class="hole" cx="359.5" cy="252.5" r="2.3" />
  <circle class="hole" cx="374.5" cy="59" r="2.3" />
  <circle class="hole" cx="374.5" cy="74" r="2.3" />
  <circle class="hole" cx="374.5" cy="284" r="2.3" />
  <circle class="hole" cx="374.5" cy="299" r="2.3" />
  <circle class="hole" cx="374.5" cy="105.5" r="2.3" />
  <circle class="hole" cx="374.5" cy="120.5" r="2.3" />
  <circle class="hole" cx="374.5" cy="135.5" r="2.3" />
  <circle class="hole" cx="374.5" cy="150.5" r="2.3" />
  <circle class="hole" cx="374.5" cy="165.5" r="2.3" />
  <circle class="hole" cx="374.5" cy="192.5" r="2.3" />
  <circle class="hole" cx="374.5" cy="207.5" r="2.3" />
  <circle class="hole" cx="374.5" cy="222.5" r="2.3" />
  <circle class="hole" cx="374.5" cy="237.5" r="2.3" />
  <circle class="hole" cx="374.5" cy="252.5" r="2.3" />
  <circle class="hole" cx="389.5" cy="59" r="2.3" />
  <circle class="hole" cx="389.5" cy="74" r="2.3" />
  <circle class="hole" cx="389.5" cy="284" r="2.3" />
  <circle class="hole" cx="389.5" cy="299" r="2.3" />
  <circle class="hole" cx="389.5" cy="105.5" r="2.3" />
  <circle class="hole" cx="389.5" cy="120.5" r="2.3" />
  <circle class="hole" cx="389.5" cy="135.5" r="2.3" />
  <circle class="hole" cx="389.5" cy="150.5" r="2.3" />
  <circle class="hole" cx="389.5" cy="165.5" r="2.3" />
  <circle class="hole" cx="389.5" cy="192.5" r="2.3" />
  <circle class="hole" cx="389.5" cy="207.5" r="2.3" />
  <circle class="hole" cx="389.5" cy="222.5" r="2.3" />
  <circle class="hole" cx="389.5" cy="237.5" r="2.3" />
  <circle class="hole" cx="389.5" cy="252.5" r="2.3" />
  <circle class="hole" cx="404.5" cy="59" r="2.3" />
  <circle class="hole" cx="404.5" cy="74" r="2.3" />
  <circle class="hole" cx="404.5" cy="284" r="2.3" />
  <circle class="hole" cx="404.5" cy="299" r="2.3" />
  <circle class="hole" cx="404.5" cy="105.5" r="2.3" />
  <circle class="hole" cx="404.5" cy="120.5" r="2.3" />
  <circle class="hole" cx="404.5" cy="135.5" r="2.3" />
  <circle class="hole" cx="404.5" cy="150.5" r="2.3" />
  <circle class="hole" cx="404.5" cy="165.5" r="2.3" />
  <circle class="hole" cx="404.5" cy="192.5" r="2.3" />
  <circle class="hole" cx="404.5" cy="207.5" r="2.3" />
  <circle class="hole" cx="404.5" cy="222.5" r="2.3" />
  <circle class="hole" cx="404.5" cy="237.5" r="2.3" />
  <circle class="hole" cx="404.5" cy="252.5" r="2.3" />
  <text class="col-num" x="404.5" y="92.75" text-anchor="middle">10</text>
  <text class="col-num" x="404.5" y="183" text-anchor="middle">10</text>
  <circle class="hole" cx="419.5" cy="59" r="2.3" />
  <circle class="hole" cx="419.5" cy="74" r="2.3" />
  <circle class="hole" cx="419.5" cy="284" r="2.3" />
  <circle class="hole" cx="419.5" cy="299" r="2.3" />
  <circle class="hole" cx="419.5" cy="105.5" r="2.3" />
  <circle class="hole" cx="419.5" cy="120.5" r="2.3" />
  <circle class="hole" cx="419.5" cy="135.5" r="2.3" />
  <circle class="hole" cx="419.5" cy="150.5" r="2.3" />
  <circle class="hole" cx="419.5" cy="165.5" r="2.3" />
  <circle class="hole" cx="419.5" cy="192.5" r="2.3" />
  <circle class="hole" cx="419.5" cy="207.5" r="2.3" />
  <circle class="hole" cx="419.5" cy="222.5" r="2.3" />
  <circle class="hole" cx="419.5" cy="237.5" r="2.3" />
  <circle class="hole" cx="419.5" cy="252.5" r="2.3" />
  <circle class="hole" cx="434.5" cy="105.5" r="2.3" />
  <circle class="hole" cx="434.5" cy="120.5" r="2.3" />
  <circle class="hole" cx="434.5" cy="135.5" r="2.3" />
  <circle class="hole" cx="434.5" cy="150.5" r="2.3" />
  <circle class="hole" cx="434.5" cy="165.5" r="2.3" />
  <circle class="hole" cx="434.5" cy="192.5" r="2.3" />
  <circle class="hole" cx="434.5" cy="207.5" r="2.3" />
  <circle class="hole" cx="434.5" cy="222.5" r="2.3" />
  <circle class="hole" cx="434.5" cy="237.5" r="2.3" />
  <circle class="hole" cx="434.5" cy="252.5" r="2.3" />
  <circle class="hole" cx="449.5" cy="59" r="2.3" />
  <circle class="hole" cx="449.5" cy="74" r="2.3" />
  <circle class="hole" cx="449.5" cy="284" r="2.3" />
  <circle class="hole" cx="449.5" cy="299" r="2.3" />
  <circle class="hole" cx="449.5" cy="105.5" r="2.3" />
  <circle class="hole" cx="449.5" cy="120.5" r="2.3" />
  <circle class="hole" cx="449.5" cy="135.5" r="2.3" />
  <circle class="hole" cx="449.5" cy="150.5" r="2.3" />
  <circle class="hole" cx="449.5" cy="165.5" r="2.3" />
  <circle class="hole" cx="449.5" cy="192.5" r="2.3" />
  <circle class="hole" cx="449.5" cy="207.5" r="2.3" />
  <circle class="hole" cx="449.5" cy="222.5" r="2.3" />
  <circle class="hole" cx="449.5" cy="237.5" r="2.3" />
  <circle class="hole" cx="449.5" cy="252.5" r="2.3" />
  <circle class="hole" cx="464.5" cy="59" r="2.3" />
  <circle class="hole" cx="464.5" cy="74" r="2.3" />
  <circle class="hole" cx="464.5" cy="284" r="2.3" />
  <circle class="hole" cx="464.5" cy="299" r="2.3" />
  <circle class="hole" cx="464.5" cy="105.5" r="2.3" />
  <circle class="hole" cx="464.5" cy="120.5" r="2.3" />
  <circle class="hole" cx="464.5" cy="135.5" r="2.3" />
  <circle class="hole" cx="464.5" cy="150.5" r="2.3" />
  <circle class="hole" cx="464.5" cy="165.5" r="2.3" />
  <circle class="hole" cx="464.5" cy="192.5" r="2.3" />
  <circle class="hole" cx="464.5" cy="207.5" r="2.3" />
  <circle class="hole" cx="464.5" cy="222.5" r="2.3" />
  <circle class="hole" cx="464.5" cy="237.5" r="2.3" />
  <circle class="hole" cx="464.5" cy="252.5" r="2.3" />
  <circle class="hole" cx="479.5" cy="59" r="2.3" />
  <circle class="hole" cx="479.5" cy="74" r="2.3" />
  <circle class="hole" cx="479.5" cy="284" r="2.3" />
  <circle class="hole" cx="479.5" cy="299" r="2.3" />
  <circle class="hole" cx="479.5" cy="105.5" r="2.3" />
  <circle class="hole" cx="479.5" cy="120.5" r="2.3" />
  <circle class="hole" cx="479.5" cy="135.5" r="2.3" />
  <circle class="hole" cx="479.5" cy="150.5" r="2.3" />
  <circle class="hole" cx="479.5" cy="165.5" r="2.3" />
  <circle class="hole" cx="479.5" cy="192.5" r="2.3" />
  <circle class="hole" cx="479.5" cy="207.5" r="2.3" />
  <circle class="hole" cx="479.5" cy="222.5" r="2.3" />
  <circle class="hole" cx="479.5" cy="237.5" r="2.3" />
  <circle class="hole" cx="479.5" cy="252.5" r="2.3" />
  <text class="col-num" x="479.5" y="92.75" text-anchor="middle">15</text>
  <text class="col-num" x="479.5" y="183" text-anchor="middle">15</text>
  <circle class="hole" cx="494.5" cy="59" r="2.3" />
  <circle class="hole" cx="494.5" cy="74" r="2.3" />
  <circle class="hole" cx="494.5" cy="284" r="2.3" />
  <circle class="hole" cx="494.5" cy="299" r="2.3" />
  <circle class="hole" cx="494.5" cy="105.5" r="2.3" />
  <circle class="hole" cx="494.5" cy="120.5" r="2.3" />
  <circle class="hole" cx="494.5" cy="135.5" r="2.3" />
  <circle class="hole" cx="494.5" cy="150.5" r="2.3" />
  <circle class="hole" cx="494.5" cy="165.5" r="2.3" />
  <circle class="hole" cx="494.5" cy="192.5" r="2.3" />
  <circle class="hole" cx="494.5" cy="207.5" r="2.3" />
  <circle class="hole" cx="494.5" cy="222.5" r="2.3" />
  <circle class="hole" cx="494.5" cy="237.5" r="2.3" />
  <circle class="hole" cx="494.5" cy="252.5" r="2.3" />
  <circle class="hole" cx="509.5" cy="59" r="2.3" />
  <circle class="hole" cx="509.5" cy="74" r="2.3" />
  <circle class="hole" cx="509.5" cy="284" r="2.3" />
  <circle class="hole" cx="509.5" cy="299" r="2.3" />
  <circle class="hole" cx="509.5" cy="105.5" r="2.3" />
  <circle class="hole" cx="509.5" cy="120.5" r="2.3" />
  <circle class="hole" cx="509.5" cy="135.5" r="2.3" />
  <circle class="hole" cx="509.5" cy="150.5" r="2.3" />
  <circle class="hole" cx="509.5" cy="165.5" r="2.3" />
  <circle class="hole" cx="509.5" cy="192.5" r="2.3" />
  <circle class="hole" cx="509.5" cy="207.5" r="2.3" />
  <circle class="hole" cx="509.5" cy="222.5" r="2.3" />
  <circle class="hole" cx="509.5" cy="237.5" r="2.3" />
  <circle class="hole" cx="509.5" cy="252.5" r="2.3" />
  <circle class="hole" cx="524.5" cy="105.5" r="2.3" />
  <circle class="hole" cx="524.5" cy="120.5" r="2.3" />
  <circle class="hole" cx="524.5" cy="135.5" r="2.3" />
  <circle class="hole" cx="524.5" cy="150.5" r="2.3" />
  <circle class="hole" cx="524.5" cy="165.5" r="2.3" />
  <circle class="hole" cx="524.5" cy="192.5" r="2.3" />
  <circle class="hole" cx="524.5" cy="207.5" r="2.3" />
  <circle class="hole" cx="524.5" cy="222.5" r="2.3" />
  <circle class="hole" cx="524.5" cy="237.5" r="2.3" />
  <circle class="hole" cx="524.5" cy="252.5" r="2.3" />
  <circle class="hole" cx="539.5" cy="59" r="2.3" />
  <circle class="hole" cx="539.5" cy="74" r="2.3" />
  <circle class="hole" cx="539.5" cy="284" r="2.3" />
  <circle class="hole" cx="539.5" cy="299" r="2.3" />
  <circle class="hole" cx="539.5" cy="105.5" r="2.3" />
  <circle class="hole" cx="539.5" cy="120.5" r="2.3" />
  <circle class="hole" cx="539.5" cy="135.5" r="2.3" />
  <circle class="hole" cx="539.5" cy="150.5" r="2.3" />
  <circle class="hole" cx="539.5" cy="165.5" r="2.3" />
  <circle class="hole" cx="539.5" cy="192.5" r="2.3" />
  <circle class="hole" cx="539.5" cy="207.5" r="2.3" />
  <circle class="hole" cx="539.5" cy="222.5" r="2.3" />
  <circle class="hole" cx="539.5" cy="237.5" r="2.3" />
  <circle class="hole" cx="539.5" cy="252.5" r="2.3" />
  <circle class="hole" cx="554.5" cy="59" r="2.3" />
  <circle class="hole" cx="554.5" cy="74" r="2.3" />
  <circle class="hole" cx="554.5" cy="284" r="2.3" />
  <circle class="hole" cx="554.5" cy="299" r="2.3" />
  <circle class="hole" cx="554.5" cy="105.5" r="2.3" />
  <circle class="hole" cx="554.5" cy="120.5" r="2.3" />
  <circle class="hole" cx="554.5" cy="135.5" r="2.3" />
  <circle class="hole" cx="554.5" cy="150.5" r="2.3" />
  <circle class="hole" cx="554.5" cy="165.5" r="2.3" />
  <circle class="hole" cx="554.5" cy="192.5" r="2.3" />
  <circle class="hole" cx="554.5" cy="207.5" r="2.3" />
  <circle class="hole" cx="554.5" cy="222.5" r="2.3" />
  <circle class="hole" cx="554.5" cy="237.5" r="2.3" />
  <circle class="hole" cx="554.5" cy="252.5" r="2.3" />
  <text class="col-num" x="554.5" y="92.75" text-anchor="middle">20</text>
  <text class="col-num" x="554.5" y="183" text-anchor="middle">20</text>
  <circle class="hole" cx="569.5" cy="59" r="2.3" />
  <circle class="hole" cx="569.5" cy="74" r="2.3" />
  <circle class="hole" cx="569.5" cy="284" r="2.3" />
  <circle class="hole" cx="569.5" cy="299" r="2.3" />
  <circle class="hole" cx="569.5" cy="105.5" r="2.3" />
  <circle class="hole" cx="569.5" cy="120.5" r="2.3" />
  <circle class="hole" cx="569.5" cy="135.5" r="2.3" />
  <circle class="hole" cx="569.5" cy="150.5" r="2.3" />
  <circle class="hole" cx="569.5" cy="165.5" r="2.3" />
  <circle class="hole" cx="569.5" cy="192.5" r="2.3" />
  <circle class="hole" cx="569.5" cy="207.5" r="2.3" />
  <circle class="hole" cx="569.5" cy="222.5" r="2.3" />
  <circle class="hole" cx="569.5" cy="237.5" r="2.3" />
  <circle class="hole" cx="569.5" cy="252.5" r="2.3" />
  <circle class="hole" cx="584.5" cy="59" r="2.3" />
  <circle class="hole" cx="584.5" cy="74" r="2.3" />
  <circle class="hole" cx="584.5" cy="284" r="2.3" />
  <circle class="hole" cx="584.5" cy="299" r="2.3" />
  <circle class="hole" cx="584.5" cy="105.5" r="2.3" />
  <circle class="hole" cx="584.5" cy="120.5" r="2.3" />
  <circle class="hole" cx="584.5" cy="135.5" r="2.3" />
  <circle class="hole" cx="584.5" cy="150.5" r="2.3" />
  <circle class="hole" cx="584.5" cy="165.5" r="2.3" />
  <circle class="hole" cx="584.5" cy="192.5" r="2.3" />
  <circle class="hole" cx="584.5" cy="207.5" r="2.3" />
  <circle class="hole" cx="584.5" cy="222.5" r="2.3" />
  <circle class="hole" cx="584.5" cy="237.5" r="2.3" />
  <circle class="hole" cx="584.5" cy="252.5" r="2.3" />
  <circle class="hole" cx="599.5" cy="59" r="2.3" />
  <circle class="hole" cx="599.5" cy="74" r="2.3" />
  <circle class="hole" cx="599.5" cy="284" r="2.3" />
  <circle class="hole" cx="599.5" cy="299" r="2.3" />
  <circle class="hole" cx="599.5" cy="105.5" r="2.3" />
  <circle class="hole" cx="599.5" cy="120.5" r="2.3" />
  <circle class="hole" cx="599.5" cy="135.5" r="2.3" />
  <circle class="hole" cx="599.5" cy="150.5" r="2.3" />
  <circle class="hole" cx="599.5" cy="165.5" r="2.3" />
  <circle class="hole" cx="599.5" cy="192.5" r="2.3" />
  <circle class="hole" cx="599.5" cy="207.5" r="2.3" />
  <circle class="hole" cx="599.5" cy="222.5" r="2.3" />
  <circle class="hole" cx="599.5" cy="237.5" r="2.3" />
  <circle class="hole" cx="599.5" cy="252.5" r="2.3" />
  <circle class="hole" cx="614.5" cy="105.5" r="2.3" />
  <circle class="hole" cx="614.5" cy="120.5" r="2.3" />
  <circle class="hole" cx="614.5" cy="135.5" r="2.3" />
  <circle class="hole" cx="614.5" cy="150.5" r="2.3" />
  <circle class="hole" cx="614.5" cy="165.5" r="2.3" />
  <circle class="hole" cx="614.5" cy="192.5" r="2.3" />
  <circle class="hole" cx="614.5" cy="207.5" r="2.3" />
  <circle class="hole" cx="614.5" cy="222.5" r="2.3" />
  <circle class="hole" cx="614.5" cy="237.5" r="2.3" />
  <circle class="hole" cx="614.5" cy="252.5" r="2.3" />
  <circle class="hole" cx="629.5" cy="59" r="2.3" />
  <circle class="hole" cx="629.5" cy="74" r="2.3" />
  <circle class="hole" cx="629.5" cy="284" r="2.3" />
  <circle class="hole" cx="629.5" cy="299" r="2.3" />
  <circle class="hole" cx="629.5" cy="105.5" r="2.3" />
  <circle class="hole" cx="629.5" cy="120.5" r="2.3" />
  <circle class="hole" cx="629.5" cy="135.5" r="2.3" />
  <circle class="hole" cx="629.5" cy="150.5" r="2.3" />
  <circle class="hole" cx="629.5" cy="165.5" r="2.3" />
  <circle class="hole" cx="629.5" cy="192.5" r="2.3" />
  <circle class="hole" cx="629.5" cy="207.5" r="2.3" />
  <circle class="hole" cx="629.5" cy="222.5" r="2.3" />
  <circle class="hole" cx="629.5" cy="237.5" r="2.3" />
  <circle class="hole" cx="629.5" cy="252.5" r="2.3" />
  <text class="col-num" x="629.5" y="92.75" text-anchor="middle">25</text>
  <text class="col-num" x="629.5" y="183" text-anchor="middle">25</text>
  <circle class="hole" cx="644.5" cy="59" r="2.3" />
  <circle class="hole" cx="644.5" cy="74" r="2.3" />
  <circle class="hole" cx="644.5" cy="284" r="2.3" />
  <circle class="hole" cx="644.5" cy="299" r="2.3" />
  <circle class="hole" cx="644.5" cy="105.5" r="2.3" />
  <circle class="hole" cx="644.5" cy="120.5" r="2.3" />
  <circle class="hole" cx="644.5" cy="135.5" r="2.3" />
  <circle class="hole" cx="644.5" cy="150.5" r="2.3" />
  <circle class="hole" cx="644.5" cy="165.5" r="2.3" />
  <circle class="hole" cx="644.5" cy="192.5" r="2.3" />
  <circle class="hole" cx="644.5" cy="207.5" r="2.3" />
  <circle class="hole" cx="644.5" cy="222.5" r="2.3" />
  <circle class="hole" cx="644.5" cy="237.5" r="2.3" />
  <circle class="hole" cx="644.5" cy="252.5" r="2.3" />
  <circle class="hole" cx="659.5" cy="59" r="2.3" />
  <circle class="hole" cx="659.5" cy="74" r="2.3" />
  <circle class="hole" cx="659.5" cy="284" r="2.3" />
  <circle class="hole" cx="659.5" cy="299" r="2.3" />
  <circle class="hole" cx="659.5" cy="105.5" r="2.3" />
  <circle class="hole" cx="659.5" cy="120.5" r="2.3" />
  <circle class="hole" cx="659.5" cy="135.5" r="2.3" />
  <circle class="hole" cx="659.5" cy="150.5" r="2.3" />
  <circle class="hole" cx="659.5" cy="165.5" r="2.3" />
  <circle class="hole" cx="659.5" cy="192.5" r="2.3" />
  <circle class="hole" cx="659.5" cy="207.5" r="2.3" />
  <circle class="hole" cx="659.5" cy="222.5" r="2.3" />
  <circle class="hole" cx="659.5" cy="237.5" r="2.3" />
  <circle class="hole" cx="659.5" cy="252.5" r="2.3" />
  <circle class="hole" cx="674.5" cy="59" r="2.3" />
  <circle class="hole" cx="674.5" cy="74" r="2.3" />
  <circle class="hole" cx="674.5" cy="284" r="2.3" />
  <circle class="hole" cx="674.5" cy="299" r="2.3" />
  <circle class="hole" cx="674.5" cy="105.5" r="2.3" />
  <circle class="hole" cx="674.5" cy="120.5" r="2.3" />
  <circle class="hole" cx="674.5" cy="135.5" r="2.3" />
  <circle class="hole" cx="674.5" cy="150.5" r="2.3" />
  <circle class="hole" cx="674.5" cy="165.5" r="2.3" />
  <circle class="hole" cx="674.5" cy="192.5" r="2.3" />
  <circle class="hole" cx="674.5" cy="207.5" r="2.3" />
  <circle class="hole" cx="674.5" cy="222.5" r="2.3" />
  <circle class="hole" cx="674.5" cy="237.5" r="2.3" />
  <circle class="hole" cx="674.5" cy="252.5" r="2.3" />
  <circle class="hole" cx="689.5" cy="59" r="2.3" />
  <circle class="hole" cx="689.5" cy="74" r="2.3" />
  <circle class="hole" cx="689.5" cy="284" r="2.3" />
  <circle class="hole" cx="689.5" cy="299" r="2.3" />
  <circle class="hole" cx="689.5" cy="105.5" r="2.3" />
  <circle class="hole" cx="689.5" cy="120.5" r="2.3" />
  <circle class="hole" cx="689.5" cy="135.5" r="2.3" />
  <circle class="hole" cx="689.5" cy="150.5" r="2.3" />
  <circle class="hole" cx="689.5" cy="165.5" r="2.3" />
  <circle class="hole" cx="689.5" cy="192.5" r="2.3" />
  <circle class="hole" cx="689.5" cy="207.5" r="2.3" />
  <circle class="hole" cx="689.5" cy="222.5" r="2.3" />
  <circle class="hole" cx="689.5" cy="237.5" r="2.3" />
  <circle class="hole" cx="689.5" cy="252.5" r="2.3" />
  <circle class="hole" cx="704.5" cy="105.5" r="2.3" />
  <circle class="hole" cx="704.5" cy="120.5" r="2.3" />
  <circle class="hole" cx="704.5" cy="135.5" r="2.3" />
  <circle class="hole" cx="704.5" cy="150.5" r="2.3" />
  <circle class="hole" cx="704.5" cy="165.5" r="2.3" />
  <circle class="hole" cx="704.5" cy="192.5" r="2.3" />
  <circle class="hole" cx="704.5" cy="207.5" r="2.3" />
  <circle class="hole" cx="704.5" cy="222.5" r="2.3" />
  <circle class="hole" cx="704.5" cy="237.5" r="2.3" />
  <circle class="hole" cx="704.5" cy="252.5" r="2.3" />
  <text class="col-num" x="704.5" y="92.75" text-anchor="middle">30</text>
  <text class="col-num" x="704.5" y="183" text-anchor="middle">30</text>
  <text class="row-lbl" x="253" y="109" text-anchor="end">j</text>
  <text class="row-lbl" x="736" y="109">j</text>
  <text class="row-lbl" x="253" y="124" text-anchor="end">i</text>
  <text class="row-lbl" x="736" y="124">i</text>
  <text class="row-lbl" x="253" y="139" text-anchor="end">h</text>
  <text class="row-lbl" x="736" y="139">h</text>
  <text class="row-lbl" x="253" y="154" text-anchor="end">g</text>
  <text class="row-lbl" x="736" y="154">g</text>
  <text class="row-lbl" x="253" y="169" text-anchor="end">f</text>
  <text class="row-lbl" x="736" y="169">f</text>
  <text class="row-lbl" x="253" y="196" text-anchor="end">e</text>
  <text class="row-lbl" x="736" y="196">e</text>
  <text class="row-lbl" x="253" y="211" text-anchor="end">d</text>
  <text class="row-lbl" x="736" y="211">d</text>
  <text class="row-lbl" x="253" y="226" text-anchor="end">c</text>
  <text class="row-lbl" x="736" y="226">c</text>
  <text class="row-lbl" x="253" y="241" text-anchor="end">b</text>
  <text class="row-lbl" x="736" y="241">b</text>
  <text class="row-lbl" x="253" y="256" text-anchor="end">a</text>
  <text class="row-lbl" x="736" y="256">a</text>
  <rect class="ard" x="18" y="78" width="206" height="240" rx="10" />
  <text class="ard-title" x="121" y="110" text-anchor="middle">Arduino UNO Q</text>
  <text class="ard-sub" x="121" y="128" text-anchor="middle">3.3V</text>
  <rect class="ard-chip" x="58" y="148" width="58" height="44" rx="4" />
  <rect class="ard-chip" x="128" y="148" width="54" height="44" rx="4" />
  <circle class="ard-pad" cx="224" cy="140" r="4.5" />
  <text class="pin" x="211" y="144" text-anchor="end">D2</text>
  <circle class="ard-pad" cx="224" cy="168" r="4.5" />
  <text class="pin" x="211" y="172" text-anchor="end">D3</text>
  <circle class="ard-pad" cx="224" cy="196" r="4.5" />
  <text class="pin" x="211" y="200" text-anchor="end">D4</text>
  <circle class="ard-pad" cx="224" cy="240" r="4.5" />
  <text class="pin" x="211" y="244" text-anchor="end">D7</text>
  <circle class="ard-pad" cx="224" cy="272" r="4.5" />
  <text class="pin" x="211" y="276" text-anchor="end">3V3</text>
  <circle class="ard-pad" cx="224" cy="302" r="4.5" />
  <text class="pin" x="211" y="306" text-anchor="end">GND</text>
  <path class="w" stroke="#3a3f44" d="M224 302 Q254.25 283 284.5 284" />
  <circle fill="#3a3f44" stroke="rgba(0,0,0,.3)" stroke-width="1" cx="224" cy="302" r="3.3" />
  <circle fill="#3a3f44" stroke="rgba(0,0,0,.3)" stroke-width="1" cx="284.5" cy="284" r="3.3" />
  <rect class="btn-body" x="292.5" y="158.5" width="44" height="41" rx="3" />
  <circle class="btn-cap" cx="314.5" cy="179" r="9" />
  <circle class="btn-leg" cx="299.5" cy="165.5" r="3" />
  <circle class="btn-leg" cx="329.5" cy="165.5" r="3" />
  <circle class="btn-leg" cx="299.5" cy="192.5" r="3" />
  <circle class="btn-leg" cx="329.5" cy="192.5" r="3" />
  <path class="w" stroke="#0d8ce0" d="M224 240 Q261.75 231.25 299.5 222.5" />
  <circle fill="#0d8ce0" stroke="rgba(0,0,0,.3)" stroke-width="1" cx="224" cy="240" r="3.3" />
  <circle fill="#0d8ce0" stroke="rgba(0,0,0,.3)" stroke-width="1" cx="299.5" cy="222.5" r="3.3" />
  <path class="w" stroke="#d94a3d" d="M224 272 Q276.75 262.25 329.5 252.5" />
  <circle fill="#d94a3d" stroke="rgba(0,0,0,.3)" stroke-width="1" cx="224" cy="272" r="3.3" />
  <circle fill="#d94a3d" stroke="rgba(0,0,0,.3)" stroke-width="1" cx="329.5" cy="252.5" r="3.3" />
  <path class="leg" d="M299.5 237.5 L299.5 284" />
  <g transform="translate(299.5 260.75) rotate(90)">
    <rect class="res-body" x="-14" y="-5" width="28" height="10" rx="4" />
    <rect x="-8.5" y="-5" width="2.6" height="10" fill="#8a5a2b" />
    <rect x="-3"   y="-5" width="2.6" height="10" fill="#1a1a1a" />
    <rect x="2.5"  y="-5" width="2.6" height="10" fill="#c8102e" />
  </g>
  <text class="comp-lbl" x="325.5" y="264.75" text-anchor="middle">10kΩ</text>
  <path class="w" stroke="#0d8ce0" d="M224 140 Q306.75 173.75 389.5 207.5" />
  <circle fill="#0d8ce0" stroke="rgba(0,0,0,.3)" stroke-width="1" cx="224" cy="140" r="3.3" />
  <circle fill="#0d8ce0" stroke="rgba(0,0,0,.3)" stroke-width="1" cx="389.5" cy="207.5" r="3.3" />
  <path class="leg" d="M389.5 222.5 L419.5 222.5" />
  <g transform="translate(404.5 222.5) rotate(0)">
    <rect class="res-body" x="-14" y="-5" width="28" height="10" rx="4" />
    <rect x="-8.5" y="-5" width="2.6" height="10" fill="#8a5a2b" />
    <rect x="-3"   y="-5" width="2.6" height="10" fill="#1a1a1a" />
    <rect x="2.5"  y="-5" width="2.6" height="10" fill="#c8102e" />
  </g>
  <text class="comp-lbl" x="404.5" y="209.5" text-anchor="middle">220Ω</text>
  <circle class="led-halo" cx="427" cy="252.5" r="11" />
  <circle class="led-body" fill="#e02020" cx="427" cy="252.5" r="8.5" />
  <circle class="led-shine" cx="424.2" cy="249.7" r="2.4" />
  <text class="plus-mark" x="419.5" y="239.5" text-anchor="middle">+</text>
  <path class="w" stroke="#3a3f44" d="M434.5 237.5 Q434.5 260.75 434.5 284" />
  <circle fill="#3a3f44" stroke="rgba(0,0,0,.3)" stroke-width="1" cx="434.5" cy="237.5" r="3.3" />
  <circle fill="#3a3f44" stroke="rgba(0,0,0,.3)" stroke-width="1" cx="434.5" cy="284" r="3.3" />
  <path class="w" stroke="#0d8ce0" d="M224 168 Q351.75 187.75 479.5 207.5" />
  <circle fill="#0d8ce0" stroke="rgba(0,0,0,.3)" stroke-width="1" cx="224" cy="168" r="3.3" />
  <circle fill="#0d8ce0" stroke="rgba(0,0,0,.3)" stroke-width="1" cx="479.5" cy="207.5" r="3.3" />
  <path class="leg" d="M479.5 222.5 L509.5 222.5" />
  <g transform="translate(494.5 222.5) rotate(0)">
    <rect class="res-body" x="-14" y="-5" width="28" height="10" rx="4" />
    <rect x="-8.5" y="-5" width="2.6" height="10" fill="#8a5a2b" />
    <rect x="-3"   y="-5" width="2.6" height="10" fill="#1a1a1a" />
    <rect x="2.5"  y="-5" width="2.6" height="10" fill="#c8102e" />
  </g>
  <text class="comp-lbl" x="494.5" y="209.5" text-anchor="middle">220Ω</text>
  <circle class="led-halo" cx="517" cy="252.5" r="11" />
  <circle class="led-body" fill="#e0b020" cx="517" cy="252.5" r="8.5" />
  <circle class="led-shine" cx="514.2" cy="249.7" r="2.4" />
  <text class="plus-mark" x="509.5" y="239.5" text-anchor="middle">+</text>
  <path class="w" stroke="#3a3f44" d="M524.5 237.5 Q524.5 260.75 524.5 284" />
  <circle fill="#3a3f44" stroke="rgba(0,0,0,.3)" stroke-width="1" cx="524.5" cy="237.5" r="3.3" />
  <circle fill="#3a3f44" stroke="rgba(0,0,0,.3)" stroke-width="1" cx="524.5" cy="284" r="3.3" />
  <path class="w" stroke="#0d8ce0" d="M224 196 Q396.75 201.75 569.5 207.5" />
  <circle fill="#0d8ce0" stroke="rgba(0,0,0,.3)" stroke-width="1" cx="224" cy="196" r="3.3" />
  <circle fill="#0d8ce0" stroke="rgba(0,0,0,.3)" stroke-width="1" cx="569.5" cy="207.5" r="3.3" />
  <path class="leg" d="M569.5 222.5 L599.5 222.5" />
  <g transform="translate(584.5 222.5) rotate(0)">
    <rect class="res-body" x="-14" y="-5" width="28" height="10" rx="4" />
    <rect x="-8.5" y="-5" width="2.6" height="10" fill="#8a5a2b" />
    <rect x="-3"   y="-5" width="2.6" height="10" fill="#1a1a1a" />
    <rect x="2.5"  y="-5" width="2.6" height="10" fill="#c8102e" />
  </g>
  <text class="comp-lbl" x="584.5" y="209.5" text-anchor="middle">220Ω</text>
  <circle class="led-halo" cx="607" cy="252.5" r="11" />
  <circle class="led-body" fill="#20b050" cx="607" cy="252.5" r="8.5" />
  <circle class="led-shine" cx="604.2" cy="249.7" r="2.4" />
  <text class="plus-mark" x="599.5" y="239.5" text-anchor="middle">+</text>
  <path class="w" stroke="#3a3f44" d="M614.5 237.5 Q614.5 260.75 614.5 284" />
  <circle fill="#3a3f44" stroke="rgba(0,0,0,.3)" stroke-width="1" cx="614.5" cy="237.5" r="3.3" />
  <circle fill="#3a3f44" stroke="rgba(0,0,0,.3)" stroke-width="1" cx="614.5" cy="284" r="3.3" />
  <circle class="badge" cx="369.5" cy="207.5" r="9" /><text class="badge-txt" x="369.5" y="211.5" text-anchor="middle">1</text>
  <circle class="badge" cx="404.5" cy="192.5" r="9" /><text class="badge-txt" x="404.5" y="196.5" text-anchor="middle">2</text>
  <circle class="badge" cx="397.5" cy="256.5" r="9" /><text class="badge-txt" x="397.5" y="260.5" text-anchor="middle">3</text>
  <circle class="badge" cx="314.5" cy="139.5" r="9" /><text class="badge-txt" x="314.5" y="143.5" text-anchor="middle">4</text>
  <g transform="translate(18, 345)">
    <line class="w" stroke="#d94a3d" x1="0" y1="0" x2="26" y2="0" />
    <text class="legend" x="34" y="4">3V3</text>
    <line class="w" stroke="#0d8ce0" x1="82" y1="0" x2="108" y2="0" />
    <text class="legend" x="116" y="4">D2 · D3 · D4 · D7</text>
    <line class="w" stroke="#3a3f44" x1="242" y1="0" x2="268" y2="0" />
    <text class="legend" x="276" y="4">GND</text>
    <text class="legend" x="352" y="4">+ = LED uzun bacak / long leg</text>
  </g>
</svg>
